<?xml version="1.0" encoding="UTF-8"?>
<svg id="Layer_2" data-name="Layer 2" xmlns="http://www.w3.org/2000/svg" viewBox="0 0 949.97 306.43">
  <defs>
    <style>
      .cls-1 {
        fill: #494f4f;
      }

      .cls-1, .cls-2, .cls-3 {
        stroke-width: 0px;
      }

      .cls-2 {
        fill: #71ac47;
      }

      .cls-3 {
        fill: #3dbce5;
      }
    </style>
  </defs>
  <g id="Layer_1-2" data-name="Layer 1">
    <g>
      <g>
        <path class="cls-3" d="M312.2,105.76L170.96,3.56c-6.54-4.75-15.39-4.75-21.92,0l-52,37.6v-22.48C97.04,8.36,88.68,0,78.36,0s-18.68,8.36-18.68,18.68v49.49L7.69,105.76c-9.27,6.74-10.33,20.17-2.22,28.27,6.49,6.48,16.72,7.29,24.14,1.9L160,41.69l130.28,94.25c7.42,5.39,17.66,4.59,24.14-1.9,8.11-8.1,7.05-21.54-2.22-28.27"/>
        <path class="cls-2" d="M282.62,167.42h-26.54s-53.45-38.85-53.45-38.85l-3.38-2.45c-3.18-2.32-6.89-3.46-10.57-3.48-4.76-.04-9.48,1.77-13.05,5.33l-.6.6c-7.93,7.93-6.89,21.05,2.18,27.63l15.43,11.21h.01s-65.4.01-65.4.01h.01s15.43-11.22,15.43-11.22c9.06-6.59,10.1-19.71,2.18-27.63l-.6-.6c-3.57-3.57-8.29-5.37-13.05-5.33-3.68.03-7.39,1.16-10.57,3.48l-3.38,2.45-53.45,38.84h-.01s-26.53.01-26.53.01c-11.36,0-19.47,10.87-16.43,21.67l.09.3,2.4,7.42h0s2.57,7.89,2.57,7.89l1.41,4.36,4.04,12.47,23.75,73.1c.04.13.07.24.13.35,2.3,6.62,8.44,11.14,15.41,11.43.23.01.46.01.69.01h177.21c.23,0,.46,0,.69-.01,7.05-.29,13.23-4.9,15.49-11.63l29.26-90.07,4.86-14.95c3.58-11.02-4.63-22.34-16.23-22.34M135.32,269.13h-49.27l-20.93-64.42h76.15v64.42h-5.95ZM233.85,269.13h-55.23v-64.42h76.16l-20.93,64.42Z"/>
      </g>
      <g>
        <g>
          <polygon class="cls-1" points="384.33 52.65 456.39 52.65 456.39 74.19 414.13 74.19 414.13 102.04 450.57 102.04 450.57 122.61 414.13 122.61 414.13 166.01 384.33 166.01 384.33 52.65"/>
          <path class="cls-1" d="M464.33,129.41c0-30.61,17.17-49.39,50.36-49.39,14.25,0,28.99,3.4,36.92,7.45v78.54h-26.88l-1.46-22.02c-4.7,13.28-13.76,24.78-29.47,24.78-17,0-29.47-13.12-29.47-39.35M522.3,115.32v-17.17c-2.11-.49-5.67-1.13-8.74-1.13-11.98,0-18.95,8.1-18.95,28.66,0,13.44,2.92,22.67,10.85,22.67,12.15,0,16.84-21.21,16.84-33.04"/>
          <path class="cls-1" d="M565.05,125.04c0-29.15,19.27-45.02,46.96-45.02,7.45,0,17.17,1.46,23.48,4.53l-1.62,20.4c-4.21-2.75-9.72-4.05-15.22-4.05-14.25,0-23.64,7.77-23.64,24.29,0,13.12,6.64,22.35,22.02,22.35,7.13,0,13.77-1.13,19.27-5.02l-.49,19.59c-6.48,4.86-18.46,6.64-25.59,6.64-28.34,0-45.18-16.84-45.18-43.72"/>
          <path class="cls-1" d="M647.8,54.92c0-9.39,7.45-16.84,16.84-16.84s16.68,7.45,16.68,16.84-7.45,16.68-16.68,16.68-16.84-7.45-16.84-16.68M649.9,82.77h29.31v83.24h-29.31v-83.24Z"/>
          <path class="cls-1" d="M695.89,133.13V49.41h29.31v78.86c0,11.66,1.46,17.17,9.23,17.17,1.78,0,3.72-.16,5.67-.49v21.38c-4.05,1.46-9.39,2.43-14.25,2.43-25.59,0-29.96-15.87-29.96-35.63"/>
          <path class="cls-1" d="M749.82,54.92c0-9.39,7.45-16.84,16.84-16.84s16.68,7.45,16.68,16.84-7.45,16.68-16.68,16.68-16.84-7.45-16.84-16.68M751.92,82.77h29.31v83.24h-29.31v-83.24Z"/>
          <path class="cls-1" d="M803.09,131.84v-29.47h-9.88v-19.6h9.88v-21.86h29.15v21.86h20.89v19.6h-20.89v28.18c0,11.01,2.75,14.9,10.53,14.9,3.89,0,6.8-.49,11.17-2.75v21.54c-5.18,2.43-12.96,4.53-20.89,4.53-19.92,0-29.96-8.42-29.96-36.92"/>
          <path class="cls-1" d="M875.15,196.45l.97-20.08c6.15,3.08,11.82,4.21,19.92,4.21,19.59,0,24.45-7.77,25.1-31.74-5.51,11.17-15.38,17.65-29.15,17.65-17.49,0-25.1-10.69-25.1-31.74v-51.98h29.31v45.02c0,11.17,1.46,17.98,8.58,17.98,9.88,0,15.87-13.6,15.87-32.39v-30.61h29.31v68.66c0,23.64-9.55,49.71-50.04,49.71-11.01,0-19.11-1.94-24.78-4.7"/>
        </g>
        <g>
          <path class="cls-1" d="M412.05,249.62h-16.23v17.67h-11.49v-43.7h11.49v17.73h16.23v-17.73h11.49v43.7h-11.49v-17.67Z"/>
          <path class="cls-1" d="M429.6,251.49c0-10.93,6.93-17.36,17.42-17.36s17.23,6.68,17.23,17.23-6.93,16.98-17.36,16.98-17.29-5.93-17.29-16.86ZM452.7,251.18c0-7.18-1.75-10.55-5.74-10.55s-5.81,3.31-5.81,10.55c0,7.68,2.06,10.68,5.81,10.68,3.93,0,5.74-3.12,5.74-10.68Z"/>
          <path class="cls-1" d="M469.44,235.2h10.43l.62,7.18c1.94-5.62,5.62-8.24,10.74-8.24s8.43,2.56,9.24,7.93c1.94-5.37,5.81-7.93,10.68-7.93,6.68,0,9.49,4,9.49,12.24v20.92h-11.3v-17.86c0-4.75-.5-7.37-3.37-7.37-4,0-5.24,5.62-5.24,13.42v11.8h-11.3v-17.86c0-4.75-.56-7.37-3.43-7.37-3.93,0-5.24,5.68-5.24,13.42v11.8h-11.3v-32.09Z"/>
          <path class="cls-1" d="M525.57,252.37c0-11.43,7.87-18.23,18.48-18.23,6.99,0,12.55,2.93,12.55,8.99,0,7.74-9.12,11.24-18.98,11.55,1,3.75,3.5,5.62,7.99,5.62,3.31,0,7.37-1,10.3-3.18l-.31,7.68c-3.12,2.37-7.43,3.56-12.42,3.56-9.3,0-17.61-4.37-17.61-15.98ZM547.05,243.5c0-2.43-1.94-2.87-3.37-2.87-3.62,0-6.18,3-6.49,8.74,5.43-.44,9.86-2.19,9.86-5.87Z"/>
          <path class="cls-1" d="M583.45,223.58h13.24l9.99,28.72,10.61-28.72h11.68v43.7h-9.18v-26.72l-9.8,26.72h-7.62l-9.74-26.47v26.47h-9.18v-43.7Z"/>
          <path class="cls-1" d="M635.15,253.18c0-11.8,6.62-19.04,19.42-19.04,5.49,0,11.18,1.31,14.24,2.87v30.28h-10.36l-.56-8.49c-1.81,5.12-5.31,9.55-11.36,9.55-6.56,0-11.36-5.06-11.36-15.17ZM657.5,247.75v-6.62c-.81-.19-2.19-.44-3.37-.44-4.62,0-7.3,3.12-7.3,11.05,0,5.18,1.12,8.74,4.18,8.74,4.68,0,6.49-8.18,6.49-12.74Z"/>
          <path class="cls-1" d="M675.55,235.2h10.49l.81,8.93c1.75-6.93,5.24-9.99,9.05-9.99,1.69,0,3.12.37,4,.81l-1.31,9.8c-1.12-.75-2.56-.94-3.75-.94-5.74,0-7.93,5.37-7.93,11.61v11.86h-11.36v-32.09Z"/>
          <path class="cls-1" d="M704.21,222.34h11.3v19.29c2.31-4.06,6.24-7.43,12.36-7.43s8.74,3.12,8.74,7.68-2.68,7.99-7.06,10.3l8.43,15.11h-11.8l-6.18-12.42c-1.44.12-2.93.19-4.49.19v12.24h-11.3v-44.95ZM726.12,244.44c0-1.87-1.19-2.68-2.81-2.68-3.62,0-6.31,3.93-7.43,8.93,7.55-.06,10.24-3.43,10.24-6.24Z"/>
          <path class="cls-1" d="M740.55,252.37c0-11.43,7.87-18.23,18.48-18.23,6.99,0,12.55,2.93,12.55,8.99,0,7.74-9.12,11.24-18.98,11.55,1,3.75,3.5,5.62,7.99,5.62,3.31,0,7.37-1,10.3-3.18l-.31,7.68c-3.12,2.37-7.43,3.56-12.42,3.56-9.3,0-17.61-4.37-17.61-15.98ZM762.02,243.5c0-2.43-1.94-2.87-3.37-2.87-3.62,0-6.18,3-6.49,8.74,5.43-.44,9.86-2.19,9.86-5.87Z"/>
          <path class="cls-1" d="M779.13,254.11v-11.36h-3.81v-7.55h3.81v-8.43h11.24v8.43h8.05v7.55h-8.05v10.86c0,4.25,1.06,5.74,4.06,5.74,1.5,0,2.62-.19,4.31-1.06v8.3c-2,.94-4.99,1.75-8.05,1.75-7.68,0-11.55-3.25-11.55-14.24Z"/>
        </g>
      </g>
    </g>
  </g>
</svg>