<?xml version="1.0" encoding="UTF-8"?>
<svg id="Layer_2" data-name="Layer 2" xmlns="http://www.w3.org/2000/svg" viewBox="0 0 612.83 817.03">
  <defs>
    <style>

      .cls-1 {
        fill: #494f4f;
      }

      .cls-1, .cls-2, .cls-3 {
        stroke-width: 0px;
      }

      .cls-2 {
        fill: #71ac47;
      }

      .cls-3 {
        fill: #3dbce5;
      }
    </style>
  </defs>
  <g id="Layer_1-2" data-name="Layer 1">
    <g>
      <g>
        <path class="cls-3" d="M542.5,359.3l-208.78-151.07c-9.66-7.02-22.74-7.02-32.4,0l-76.86,55.58v-33.23c0-15.25-12.36-27.61-27.61-27.61s-27.61,12.36-27.61,27.61v73.15l-76.86,55.58c-13.71,9.96-15.27,29.81-3.28,41.79,9.59,9.58,24.72,10.77,35.69,2.8l192.74-139.31,192.58,139.31c10.97,7.97,26.1,6.78,35.69-2.8,11.98-11.98,10.42-31.83-3.28-41.79"/>
        <path class="cls-2" d="M498.77,450.44h-39.22l-.02-.02-79.01-57.41-5-3.63c-4.7-3.42-10.18-5.11-15.62-5.15-7.03-.06-14.01,2.61-19.28,7.88l-.89.89c-11.72,11.72-10.18,31.11,3.22,40.85l22.8,16.56.02.02h-96.67l.02-.02,22.8-16.56c13.4-9.74,14.94-29.13,3.22-40.85l-.89-.89c-5.27-5.27-12.25-7.94-19.28-7.88-5.44.04-10.92,1.72-15.62,5.15l-5,3.63-79.01,57.41-.02.02h-39.22c-16.79,0-28.78,16.06-24.28,32.04l.13.44,3.55,10.98v.02l3.79,11.64,2.09,6.44,5.98,18.43,35.11,108.05c.06.19.11.35.19.52,3.4,9.79,12.47,16.47,22.78,16.9.33.02.68.02,1.02.02h261.94c.33,0,.68,0,1.02-.02,10.42-.43,19.56-7.24,22.89-17.19l43.25-133.14,7.18-22.1c5.29-16.29-6.85-33.02-23.99-33.02M281.04,600.78h-72.83l-30.94-95.22h112.56v95.22h-8.79ZM426.68,600.78h-81.63v-95.22h112.58l-30.94,95.22Z"/>
      </g>
      <g>
        <g>
          <path class="cls-1" d="M0,173.13l49.62-55.82,16.68,14.83-29.1,32.74,21.57,19.18,25.09-28.22,15.93,14.16-25.09,28.22,33.62,29.89-20.52,23.08L0,173.13Z"/>
          <path class="cls-1" d="M117.54,161.8c-16.08-27.34-10.62-53.15,19.04-70.59,12.73-7.49,27.69-12.19,36.9-12.75l41.27,70.17-24.02,14.13-12.88-18.91c2.78,14.33.72,29.37-13.31,37.62-15.19,8.94-33.22,3.77-47.01-19.67ZM161.93,118.75l-9.02-15.34c-2.14.67-5.66,1.97-8.41,3.58-10.71,6.3-12.67,17.19-1.87,35.57,7.06,12.01,14.52,18.72,21.61,14.55,10.85-6.38,3.9-27.8-2.31-38.36Z"/>
          <path class="cls-1" d="M211.1,106c-6.63-29.48,9.25-49.91,37.26-56.2,7.53-1.69,17.69-2.43,24.78-.75l3,21c-4.88-1.83-10.75-1.89-16.31-.63-14.41,3.24-22.14,13.24-18.39,29.94,2.98,13.26,11.79,21.09,27.35,17.59,7.21-1.62,13.66-4.27,18.35-9.46l3.96,19.93c-5.45,6.38-17.16,10.91-24.36,12.53-28.66,6.44-49.52-6.76-55.63-33.94Z"/>
          <path class="cls-1" d="M296.75,17.74c-.16-9.73,7.44-17.58,17.17-17.74,9.57-.16,17.41,7.44,17.57,17.17.16,9.57-7.44,17.41-17.01,17.57-9.73.16-17.58-7.44-17.73-17ZM299.4,46.57l30.38-.49,1.4,86.26-30.38.49-1.4-86.26Z"/>
          <path class="cls-1" d="M349.3,99.45l14.44-85.56,29.96,5.06-13.6,80.6c-2.01,11.92-1.47,17.79,6.47,19.14,1.82.31,3.83.48,5.88.48l-3.69,21.85c-4.39.79-10.02.86-14.98.02-26.15-4.41-27.88-21.39-24.47-41.58Z"/>
          <path class="cls-1" d="M424.64,62.1l28.62,10.18-28.9,81.28-28.62-10.18,28.9-81.28ZM432.26,34.16c3.26-9.17,13.12-13.86,22.29-10.6,9.01,3.21,13.7,13.07,10.44,22.24-3.21,9.01-13.07,13.7-22.08,10.5-9.17-3.26-13.86-13.12-10.65-22.14Z"/>
          <path class="cls-1" d="M458.33,129.83l15.69-26.21-8.79-5.26,10.43-17.43,8.79,5.26,11.64-19.44,25.92,15.52-11.64,19.44,18.58,11.12-10.43,17.43-18.58-11.12-15,25.06c-5.86,9.79-5.48,14.72,1.43,18.85,3.46,2.07,6.31,3.19,11.4,3.5l-11.47,19.15c-5.9-.6-13.93-2.86-20.99-7.09-17.71-10.6-22.16-23.44-6.99-48.78Z"/>
          <path class="cls-1" d="M473.66,217.18l15.97-13.38c1.99,6.85,5.11,11.96,10.8,18.13,13.78,14.92,23.12,13.15,41.82-3.21-12.38,3.67-24.26.7-33.94-9.78-12.3-13.32-9.52-26.63,6.51-41.43l39.58-36.56,20.61,22.32-34.28,31.66c-8.51,7.86-12.66,13.75-7.65,19.18,6.95,7.52,21.52,2.52,35.82-10.7l23.3-21.53,20.61,22.32-52.28,48.29c-18,16.63-44.57,27.69-73.04-3.13-7.74-8.38-11.96-15.92-13.85-22.17Z"/>
        </g>
        <g>
          <path class="cls-1" d="M113.08,735.3l-17.08-11.37-12.38,18.59-12.09-8.05,30.62-45.99,12.09,8.05-12.42,18.66,17.08,11.37,12.42-18.66,12.09,8.05-30.62,45.99-12.09-8.05,12.38-18.59Z"/>
          <path class="cls-1" d="M132.49,749.97c5.9-12.49,17.3-16.1,29.29-10.43,12.35,5.83,16.09,16.94,10.39,29-5.94,12.56-17.09,15.67-29.01,10.04-11.85-5.6-16.56-16.12-10.66-28.61ZM159.07,762.09c3.88-8.21,3.7-13-.87-15.16-4.5-2.12-8.42.65-12.34,8.92-4.15,8.78-3.41,13.32.87,15.34,4.5,2.12,8.25-.47,12.33-9.1Z"/>
          <path class="cls-1" d="M185.85,752.82l12.68,3.61-1.73,8.95c4.3-6.16,9.69-8.08,15.91-6.3,6.38,1.82,9.36,6.03,8.49,12.84,4.21-5.86,9.81-7.63,15.73-5.94,8.12,2.31,10.16,8.15,7.3,18.17l-7.24,25.43-13.74-3.91,6.18-21.71c1.64-5.77,1.94-9.13-1.55-10.13-4.86-1.38-8.32,5.02-11.03,14.51l-4.09,14.35-13.74-3.91,6.18-21.71c1.64-5.77,1.87-9.15-1.62-10.15-4.78-1.36-8.35,5.09-11.03,14.51l-4.09,14.35-13.74-3.91,11.11-39.02Z"/>
          <path class="cls-1" d="M250.9,792.15c1.73-14.34,12.64-21.69,25.96-20.08,8.78,1.06,15.3,5.59,14.39,13.19-1.17,9.72-13.14,12.72-25.57,11.62.69,4.85,3.54,7.58,9.18,8.26,4.15.5,9.4-.14,13.41-2.43l-1.56,9.59c-4.28,2.5-9.86,3.34-16.13,2.58-11.68-1.41-21.43-8.15-19.67-22.73ZM279.2,784.28c.37-3.06-1.99-3.9-3.8-4.12-4.54-.55-8.21,2.82-9.47,9.99,6.88.28,12.71-1.25,13.27-5.87Z"/>
          <path class="cls-1" d="M323.66,762.05l16.65-1.63,16.11,34.9,9.81-37.44,14.69-1.44,5.4,54.98-11.55,1.13-3.3-33.62-9.03,34.83-9.58.94-15.52-32.1,3.27,33.3-11.55,1.13-5.4-54.98Z"/>
          <path class="cls-1" d="M394.81,791.31c-3.78-14.43,2-25.41,17.65-29.51,6.72-1.76,14.09-1.97,18.33-1.05l9.7,37.04-12.68,3.32-3.41-10.21c-.58,6.84-3.43,13.38-10.84,15.32-8.02,2.1-15.52-2.55-18.76-14.92ZM420.41,777.51l-2.12-8.09c-1.05.03-2.81.16-4.26.54-5.65,1.48-7.93,6.16-5.4,15.85,1.66,6.34,4.17,10.33,7.91,9.35,5.73-1.5,5.32-12.08,3.86-17.66Z"/>
          <path class="cls-1" d="M437.51,755.78l12.36-4.81,5.05,10.14c-1.12-8.97,1.59-14.18,6.08-15.92,1.99-.77,3.85-.99,5.08-.88l2.95,12.15c-1.67-.37-3.45.07-4.84.62-6.77,2.64-6.88,9.96-4.01,17.32l5.44,13.97-13.39,5.21-14.73-37.81Z"/>
          <path class="cls-1" d="M463,728.41l12.63-6.67,11.38,21.57c.19-5.9,2.6-11.99,9.44-15.6,6.56-3.46,11.61-1.67,14.3,3.43,2.62,4.96,1.71,10.52-1.81,15.68l18.34,11.92-13.19,6.96-14.24-10.24c-1.53.99-3.17,1.94-4.92,2.86l7.22,13.68-12.63,6.67-26.52-50.26ZM500.54,740.19c-1.11-2.09-2.91-2.3-4.73-1.34-4.05,2.14-4.73,8.12-3.04,14.37,8.41-4.53,9.42-9.88,7.76-13.02Z"/>
          <path class="cls-1" d="M522.78,739.21c-8.25-11.86-5-24.6,6.01-32.26,7.26-5.05,15.14-6.02,19.52.27,5.59,8.03-1.34,18.25-11.35,25.69,3.74,3.17,7.69,3.31,12.35.06,3.43-2.39,6.92-6.36,8.39-10.74l5.22,8.19c-1.53,4.72-5.14,9.06-10.32,12.67-9.65,6.72-21.43,8.18-29.81-3.87ZM538.66,714.5c-1.76-2.53-4.08-1.58-5.57-.54-3.76,2.61-4.25,7.57-.43,13.76,5.32-4.38,8.66-9.39,6-13.21Z"/>
          <path class="cls-1" d="M564.96,711.23l-9.41-10.86-3.64,3.15-6.25-7.22,3.64-3.15-6.98-8.06,10.74-9.3,6.98,8.06,7.7-6.67,6.25,7.22-7.7,6.67,8.99,10.38c3.51,4.06,5.77,4.61,8.63,2.13,1.43-1.24,2.35-2.35,3.24-4.58l6.87,7.94c-1.13,2.55-3.33,5.81-6.25,8.34-7.34,6.36-13.73,6.46-22.82-4.04Z"/>
        </g>
      </g>
    </g>
  </g>
</svg>